<?xml version="1.0" encoding="UTF-8"?>
<svg id="Layer_2" data-name="Layer 2" xmlns="http://www.w3.org/2000/svg" viewBox="0 0 830.42 100.64">
  <g id="main_logo" data-name="main logo">
    <g id="terralux_wordmark" data-name="terralux wordmark">
      <g>
        <polygon points="39.23 99.94 39.23 7.92 0 7.92 0 .7 86.92 .7 86.92 7.92 47.7 7.92 47.7 99.94 39.23 99.94"/>
        <polygon points="110.6 99.94 110.6 .7 183.37 .7 183.37 7.92 119.07 7.92 119.07 41.26 176.36 41.26 176.36 48.47 119.07 48.47 119.07 92.72 184.84 92.72 184.84 99.94 110.6 99.94"/>
        <path d="M284.6,99.94l-18.04-36.61-1.87.28c-4.72.71-9.72,1.08-14.88,1.08h-29.72v35.25h-8.47V.7h40.25c14.92,0,26.13,2.02,33.33,6.02,8.48,4.67,12.6,12.37,12.6,23.55,0,14.47-6.47,24.18-19.79,29.69l-2.55,1.06,19.22,38.93h-10.08ZM220.09,57.48h31.56c11.58,0,20.01-1.61,25.77-4.92,7.37-4.27,11.1-11.47,11.1-21.41,0-9.07-4.34-20.33-25.03-22.48-4.43-.5-9.07-.75-13.76-.75h-29.65v49.56Z"/>
        <path d="M398.89,99.94l-18.04-36.61-1.87.28c-4.72.71-9.72,1.08-14.88,1.08h-29.72v35.25h-8.47V.7h40.25c14.92,0,26.13,2.02,33.33,6.02,8.48,4.67,12.6,12.37,12.6,23.55,0,14.47-6.47,24.18-19.79,29.69l-2.55,1.06,19.22,38.93h-10.08ZM334.38,57.48h31.56c11.58,0,20.01-1.61,25.77-4.92,7.37-4.27,11.1-11.47,11.1-21.41,0-9.07-4.34-20.33-25.03-22.48-4.43-.5-9.07-.75-13.76-.75h-29.65v49.56Z"/>
        <path d="M514.45,99.94l-9.88-22.86h-55.62l-10.69,22.86h-8.3L476.35.7h4.4l42.96,99.24h-9.26ZM478.47,11.24l-26.12,58.62,50.04.21-23.92-58.83Z"/>
      </g>
      <g>
        <path d="M548.97,0h12.97v87.46h54.1v11.77h-67.07V0Z"/>
        <path d="M631.45,0h12.97v51.37c0,18.04,6,29.69,18.01,34.97,4.11,1.78,8.97,2.66,14.58,2.66s10.38-.82,14.33-2.45c3.95-1.63,7.21-3.99,9.78-7.08,5-5.93,7.5-14.6,7.5-26V0h12.97v51.37c0,23.78-8.57,39.08-25.72,45.9-5.7,2.24-12.29,3.36-19.76,3.36s-13.98-1.09-19.52-3.26c-5.54-2.17-10.15-5.29-13.84-9.36-7.52-8.22-11.28-19.74-11.28-34.55V0Z"/>
        <path d="M774.14,49.2L735.6,0h17.03l30,38.34L812.41,0h15.49l-37.49,48.22,40.02,51.02h-17.03l-31.47-40.09-31.12,40.09h-15.49l38.83-50.04Z"/>
      </g>
    </g>
  </g>
</svg>